<svg width="30" height="29" viewBox="0 0 30 29" fill="none" xmlns="http://www.w3.org/2000/svg">
<path d="M22.5 0C19.3753 0 17.0109 1.83377 15 3.75C13.0838 1.71657 10.6247 0 7.5 0C3.09936 0 0 3.78373 0 7.90971C0 10.1231 0.906569 11.7178 1.89936 13.215L13.5553 27.1894C14.8641 28.5741 15.1106 28.5741 16.4194 27.1894L28.1015 13.215C29.2687 11.7178 30 10.1231 30 7.90971C30 3.78378 26.9006 0 22.5 0ZM26.25 12.8269L15 26.25L3.75 12.7716C2.40471 10.9013 1.875 9.63941 1.875 7.90971C1.875 4.68657 4.17657 1.785 7.5 1.75779C10.2338 1.73529 13.3322 4.52716 15 6.63186C16.6238 4.6003 19.7662 1.75779 22.5 1.75779C25.7353 1.75779 28.125 4.68657 28.125 7.90971C28.125 9.63941 27.7059 10.995 26.25 12.8269Z" fill="#FF9400"/>
</svg>
