<svg width="50" height="50" viewBox="0 0 50 50" fill="none" xmlns="http://www.w3.org/2000/svg">
<g clip-path="url(#clip0_969_298)">
<path d="M7.65 12.7936C7.65 12.7936 3.79219 16.4795 3.58125 20.3779V21.1029C3.75156 24.2529 6.12812 26.1076 6.12812 26.1076C9.9375 29.8342 19.1656 34.5217 21.3297 35.5811C21.3297 35.5811 21.4594 35.6467 21.5406 35.5654L21.5813 35.4842V35.3951C15.6656 22.5045 7.64844 12.7951 7.64844 12.7951L7.65 12.7936ZM20.1016 38.7529C20.0609 38.5826 19.8984 38.5826 19.8984 38.5826L4.525 39.1279C6.18594 42.1061 9.00156 44.3936 11.9391 43.7092C13.9406 43.1889 18.5234 39.9982 20.0203 38.9154C20.15 38.8092 20.1016 38.7279 20.1016 38.7279V38.7529ZM20.2719 37.1248C13.5172 32.5592 0.439062 25.5857 0.439062 25.5857C0.121875 26.5373 0.0234375 27.4576 0 28.2873V28.4342C0 30.6639 0.829688 32.2264 0.829688 32.2264C2.49844 35.7498 5.70469 36.817 5.70469 36.817C7.17031 37.4357 8.62656 37.4592 8.62656 37.4592C8.87813 37.4998 17.7906 37.4592 20.1656 37.4592C20.2719 37.4592 20.3359 37.3529 20.3359 37.3529V37.2311C20.3359 37.1654 20.2703 37.1248 20.2703 37.1248H20.2719ZM18.8719 6.64824C15.8438 7.42168 13.6719 10.0826 13.5172 13.2076V14.0623C13.5828 15.3154 13.8516 16.2514 13.8516 16.2514C15.2266 22.2904 21.9 32.1857 23.3328 34.2686C23.4391 34.3748 23.5437 34.3342 23.5437 34.3342C23.625 34.3014 23.6734 34.2123 23.6656 34.1232C25.8797 12.0451 21.3547 6.16855 21.3547 6.16855C20.6875 6.20918 18.8719 6.64824 18.8719 6.64824ZM36.1656 11.3764C36.1656 11.3764 35.1484 7.6248 31.0875 6.62324C31.0875 6.62324 29.9 6.32949 28.6453 6.16699C28.6453 6.16699 24.1047 12.0186 26.3094 34.1451C26.3344 34.292 26.4391 34.3076 26.4391 34.3076C26.5859 34.3732 26.6422 34.2514 26.6422 34.2514C28.1484 32.1029 34.7719 22.2482 36.1234 16.2498C36.1234 16.2498 36.8719 13.3279 36.1641 11.3748L36.1656 11.3764ZM30.0859 38.6061C30.0859 38.6061 29.9391 38.6061 29.8984 38.7045C29.8984 38.7045 29.8734 38.8514 29.9547 38.9154C31.4109 39.9811 35.8953 43.0826 38.0438 43.7092C38.0438 43.7092 38.3781 43.8154 38.9391 43.8311H39.2234C40.6641 43.7904 43.1859 43.0654 45.4734 39.1279L30.0594 38.6076L30.0859 38.6061ZM46.3953 21.0857C46.6891 16.7889 42.35 12.8092 42.35 12.7936C42.35 12.7936 34.3344 22.5029 28.4578 35.2951C28.4578 35.2951 28.3922 35.4576 28.4984 35.5639L28.5797 35.5795H28.7094C30.9141 34.4811 40.0781 29.8092 43.8703 26.1232C43.8703 26.1232 46.2703 24.1857 46.3937 21.0857H46.3953ZM49.5609 25.5451C49.5609 25.5451 36.4828 32.5607 29.7281 37.1014C29.7281 37.1014 29.6219 37.1904 29.6625 37.3373C29.6625 37.3373 29.7281 37.4592 29.8094 37.4592C32.2266 37.4592 41.3984 37.4592 41.6266 37.4186C41.6266 37.4186 42.8141 37.3779 44.2719 36.817C44.2719 36.817 47.5188 35.7748 49.2109 32.0811C49.2109 32.0811 50.7328 29.0607 49.5609 25.5451Z" fill="black"/>
</g>
<defs>
<clipPath id="clip0_969_298">
<rect width="50" height="50" fill="white"/>
</clipPath>
</defs>
</svg>
