<svg width="50" height="50" viewBox="0 0 50 50" fill="none" xmlns="http://www.w3.org/2000/svg">
<g clip-path="url(#clip0_969_304)">
<path d="M24.9902 11.8066L25.8789 10.2734C26.4258 9.31641 27.6465 8.99414 28.6035 9.54102C29.5605 10.0879 29.8828 11.3086 29.3359 12.2656L20.791 27.0605H26.9727C28.9746 27.0605 30.0977 29.4141 29.2285 31.0449H11.1133C10.0098 31.0449 9.12109 30.1562 9.12109 29.0527C9.12109 27.9492 10.0098 27.0605 11.1133 27.0605H16.1914L22.6953 15.791L20.6641 12.2656C20.1172 11.3086 20.4395 10.0977 21.3965 9.54102C22.3535 8.99414 23.5645 9.31641 24.1211 10.2734L24.9902 11.8066ZM17.3047 33.0957L15.3906 36.416C14.8438 37.373 13.623 37.6953 12.666 37.1484C11.709 36.6016 11.3867 35.3809 11.9336 34.4238L13.3594 31.9629C14.9609 31.4648 16.2695 31.8457 17.3047 33.0957ZM33.7988 27.0703H38.9844C40.0879 27.0703 40.9766 27.959 40.9766 29.0625C40.9766 30.166 40.0879 31.0547 38.9844 31.0547H36.1035L38.0469 34.4238C38.5938 35.3809 38.2715 36.5918 37.3145 37.1484C36.3574 37.6953 35.1465 37.373 34.5898 36.416C31.3184 30.7422 28.8574 26.4941 27.2266 23.6621C25.5566 20.7812 26.748 17.8906 27.9297 16.9141C29.2383 19.1602 31.1914 22.5488 33.7988 27.0703ZM25 0.78125C11.6211 0.78125 0.78125 11.6211 0.78125 25C0.78125 38.3789 11.6211 49.2188 25 49.2188C38.3789 49.2188 49.2188 38.3789 49.2188 25C49.2188 11.6211 38.3789 0.78125 25 0.78125ZM46.0938 25C46.0938 36.5918 36.709 46.0938 25 46.0938C13.4082 46.0938 3.90625 36.709 3.90625 25C3.90625 13.4082 13.291 3.90625 25 3.90625C36.5918 3.90625 46.0938 13.291 46.0938 25Z" fill="black"/>
</g>
<defs>
<clipPath id="clip0_969_304">
<rect width="50" height="50" fill="white"/>
</clipPath>
</defs>
</svg>
