<svg width="30" height="30" viewBox="0 0 30 30" fill="none" xmlns="http://www.w3.org/2000/svg">
<path d="M30 12.1893C30 10.705 28.7919 9.49743 27.3081 9.49743H23.0355L18.5875 1.06068C18.0994 0.134739 17.0269 -0.259873 16.1933 0.179711C15.3598 0.619296 15.0799 1.72701 15.5679 2.65295L19.1759 9.49743H10.8228L14.4308 2.65295C14.9195 1.72701 14.6391 0.619296 13.8054 0.179711C12.9717 -0.259873 11.8993 0.134739 11.4112 1.06068L6.96387 9.49743H2.69244C1.20807 9.49743 0 10.7049 0 12.1893C0 13.2629 0.63689 14.1848 1.54846 14.6164L3.22152 27.8179C3.24289 28.7536 4.01075 29.5088 4.95168 29.5088H25.0472C25.9882 29.5088 26.7567 28.7536 26.778 27.8179L28.4511 14.617C29.3631 14.1848 30 13.2635 30 12.1893ZM25.6293 27.7053L25.6247 27.778C25.6247 28.0965 25.3668 28.3549 25.0478 28.3549H4.95168C4.63319 28.3549 4.37475 28.0965 4.37475 27.778L2.74496 14.8811H27.255L25.6293 27.7053ZM27.9121 13.6033L27.7546 13.6512C27.6756 13.6749 27.6046 13.6916 27.5359 13.7042C27.4615 13.7158 27.3859 13.7273 27.308 13.7273H2.69244C2.61399 13.7273 2.53894 13.7152 2.46399 13.7042C2.39595 13.6921 2.3244 13.6748 2.24595 13.6512L2.08841 13.6033C1.53976 13.368 1.15385 12.8234 1.15385 12.1893C1.15385 11.3413 1.84379 10.6513 2.69244 10.6513H6.39161C6.11531 11.4964 6.41818 12.4062 7.15427 12.7945C7.98792 13.2341 9.06036 12.8395 9.54842 11.9136L10.2136 10.6513H19.7834L20.4492 11.9136C20.9372 12.8395 22.0097 13.2341 22.8433 12.7945C23.5789 12.4063 23.8824 11.4965 23.606 10.6513H27.3063C28.1538 10.6513 28.8444 11.3412 28.8444 12.1893C28.8461 12.8234 28.4608 13.3673 27.9121 13.6033ZM6.67079 25.9873V17.0451C6.67079 16.7261 6.92868 16.4682 7.24771 16.4682C7.56674 16.4682 7.82464 16.7261 7.82464 17.0451V25.9873C7.82464 26.3063 7.56674 26.5642 7.24771 26.5642C6.92868 26.5642 6.67079 26.3063 6.67079 25.9873ZM22.1754 25.9873V17.0451C22.1754 16.7261 22.4333 16.4682 22.7523 16.4682C23.0713 16.4682 23.3292 16.7261 23.3292 17.0451V25.9873C23.3292 26.3063 23.0713 26.5642 22.7523 26.5642C22.4333 26.5642 22.1754 26.3063 22.1754 25.9873ZM17.0068 25.9873V17.0451C17.0068 16.7261 17.2647 16.4682 17.5837 16.4682C17.9028 16.4682 18.1607 16.7261 18.1607 17.0451V25.9873C18.1607 26.3063 17.9028 26.5642 17.5837 26.5642C17.2646 26.5642 17.0068 26.3063 17.0068 25.9873ZM11.8393 25.9873V17.0451C11.8393 16.7261 12.0972 16.4682 12.4163 16.4682C12.7353 16.4682 12.9932 16.7261 12.9932 17.0451V25.9873C12.9932 26.3063 12.7353 26.5642 12.4163 26.5642C12.0972 26.5642 11.8393 26.3063 11.8393 25.9873Z" fill="#FF9400" fill-opacity="0.6"/>
</svg>
