<svg width="50" height="50" viewBox="0 0 50 50" fill="none" xmlns="http://www.w3.org/2000/svg">
<path d="M25 48.4375C24.3474 48.4318 23.7031 48.2899 23.1085 48.0208C22.5138 47.7518 21.982 47.3615 21.5469 46.875C15.8437 40.625 6.24999 28.7344 6.24999 20.875C6.17901 15.8286 8.11373 10.9604 11.6293 7.3394C15.1448 3.71839 19.9537 1.64066 25 1.5625C30.0462 1.64066 34.8552 3.71839 38.3707 7.3394C41.8863 10.9604 43.821 15.8286 43.75 20.875C43.75 28.6875 34.1562 40.5469 28.4531 46.8906C28.0166 47.3743 27.4841 47.7616 26.8896 48.028C26.295 48.2943 25.6515 48.4338 25 48.4375ZM25 4.6875C20.7839 4.76965 16.7721 6.51939 13.8435 9.55346C10.9149 12.5875 9.30805 16.6586 9.37499 20.875C9.37499 25.7812 14.7969 34.7188 23.875 44.7969C24.0208 44.9481 24.1955 45.0684 24.3888 45.1505C24.5821 45.2327 24.79 45.275 25 45.275C25.21 45.275 25.4179 45.2327 25.6112 45.1505C25.8045 45.0684 25.9792 44.9481 26.125 44.7969C35.2031 34.7188 40.625 25.7812 40.625 20.875C40.6919 16.6586 39.0851 12.5875 36.1565 9.55346C33.2279 6.51939 29.2161 4.76965 25 4.6875Z" fill="#FF9400" fill-opacity="0.6"/>
<path d="M25.375 29.75C23.5208 29.75 21.7082 29.2002 20.1665 28.17C18.6248 27.1399 17.4232 25.6757 16.7136 23.9627C16.0041 22.2496 15.8184 20.3646 16.1801 18.546C16.5419 16.7275 17.4348 15.057 18.7459 13.7459C20.057 12.4348 21.7275 11.5419 23.546 11.1801C25.3646 10.8184 27.2496 11.0041 28.9627 11.7136C30.6757 12.4232 32.1399 13.6248 33.17 15.1665C34.2002 16.7082 34.75 18.5208 34.75 20.375C34.75 22.8614 33.7623 25.246 32.0041 27.0041C30.246 28.7623 27.8614 29.75 25.375 29.75ZM25.375 14.125C24.1389 14.125 22.9305 14.4916 21.9027 15.1783C20.8749 15.8651 20.0738 16.8412 19.6008 17.9832C19.1277 19.1253 19.0039 20.3819 19.2451 21.5943C19.4863 22.8067 20.0815 23.9203 20.9556 24.7944C21.8297 25.6685 22.9433 26.2638 24.1557 26.5049C25.3681 26.7461 26.6247 26.6223 27.7668 26.1493C28.9088 25.6762 29.8849 24.8751 30.5717 23.8473C31.2584 22.8195 31.625 21.6111 31.625 20.375C31.625 18.7174 30.9665 17.1277 29.7944 15.9556C28.6223 14.7835 27.0326 14.125 25.375 14.125Z" fill="#FF9400" fill-opacity="0.6"/>
</svg>
