<svg width="50" height="50" viewBox="0 0 50 50" fill="none" xmlns="http://www.w3.org/2000/svg">
<path d="M48.2886 36.1998L42.0614 29.9176C41.0322 28.8877 39.6426 28.2698 38.356 28.2698C36.9665 28.2698 35.7313 28.8363 34.6506 29.9176L31.0481 33.5221C30.8937 33.4192 30.6879 33.3162 30.5335 33.2647C30.5335 33.2647 30.482 33.2647 30.482 33.2132L30.4305 33.1617C29.9674 32.8527 29.4527 32.5438 28.8352 32.2863C25.6958 30.3296 22.7624 27.6004 19.7775 23.9444C18.3879 22.1936 17.4101 20.6488 16.6382 18.9495C17.4616 18.2801 18.0792 17.6107 18.5423 17.0958L20.1377 15.4995C21.3729 14.3666 21.9904 13.0793 21.9904 11.7405C21.9904 10.3502 21.3729 9.06282 20.1892 7.82698L15.3001 2.93512C14.8369 2.47168 14.3737 2.00824 13.8591 1.5448C12.8298 0.566426 11.5432 0 10.2051 0C8.71268 0 7.47754 0.514933 6.34533 1.64779L2.58845 5.4068C1.09599 6.79712 0.221096 8.54789 0.0152394 10.7106V10.7621C-0.0876889 13.4398 0.324022 15.9114 1.45623 19.001C3.25748 23.8414 5.98508 28.3728 10.0507 33.3677C15.3516 39.3409 21.3214 43.9753 27.9603 47.1679L28.1147 47.2194C30.0703 48.0947 33.7757 49.7425 37.8928 50H38.4589C41.1865 50 43.2451 49.1246 44.9434 47.2709C45.561 46.5499 46.23 45.8805 46.7961 45.2626C47.2593 44.9022 47.5681 44.5417 47.8769 44.1813L48.2886 43.7693L48.3915 43.6663C50.553 41.2976 50.553 38.414 48.2886 36.1998ZM46.4874 41.9156L45.9727 42.4305L45.9212 42.5335C45.6639 42.8424 45.4581 43.0999 45.2007 43.3059L45.0464 43.4604C44.4288 44.0783 43.7083 44.7992 42.9878 45.6231C41.8041 46.9104 40.466 47.4768 38.4589 47.4768H38.0472C34.4447 47.2194 31.151 45.7775 29.1954 44.9022L29.0925 44.8507C22.7624 41.8126 17.0499 37.3841 12.0578 31.7199C8.14657 26.9825 5.57337 22.6571 3.87505 18.1256C2.84577 15.2935 2.48552 13.2338 2.58845 10.9166C2.74284 9.42327 3.30894 8.23893 4.33823 7.31205L8.14657 3.50154C8.76414 2.88362 9.38171 2.62616 10.1537 2.62616C10.8227 2.62616 11.4403 2.93512 12.0064 3.45005L12.0578 3.50154C12.521 3.91349 12.9842 4.37693 13.4474 4.84037L18.3365 9.73223C19.2628 10.6591 19.4172 11.38 19.4172 11.792C19.4172 12.2039 19.3143 12.8218 18.3365 13.6972L16.6896 15.345C16.1235 15.9629 15.4545 16.6323 14.5796 17.3532L14.4767 17.4562L14.3737 17.6107C13.9106 18.2286 13.8591 18.7951 14.1164 19.6189L14.1679 19.8249L14.2193 20.0309C15.0942 21.9361 16.175 23.6869 17.7189 25.6437C20.9097 29.5572 24.1005 32.4923 27.4971 34.6035L27.6515 34.7065C28.0632 34.9125 28.4749 35.1184 28.8352 35.3244C28.9895 35.4789 29.1954 35.5819 29.3498 35.6334C29.5557 35.7364 29.71 35.7878 29.813 35.8908L30.1732 36.1483H30.2761L30.4305 36.1998C30.7393 36.3028 30.9452 36.3028 31.0996 36.3028C31.6142 36.3028 32.0774 36.0968 32.5406 35.6334L36.4004 31.7714C37.0179 31.1534 37.5841 30.896 38.3046 30.896C39.0765 30.896 39.797 31.3594 40.2087 31.7714L46.4874 38.0536C47.7225 39.2894 47.774 40.5767 46.4874 41.9156Z" fill="#FF9400" fill-opacity="0.6"/>
</svg>
