<svg width="39" height="43" viewBox="0 0 39 43" fill="none" xmlns="http://www.w3.org/2000/svg">
<path d="M36.8827 19.1284L4.11026 0.369289C3.6909 0.126077 3.21445 -0.00136172 2.72967 1.09732e-05C2.24488 0.00138367 1.76917 0.131519 1.35119 0.377102C0.939589 0.611215 0.597584 0.950484 0.360172 1.36019C0.122761 1.76989 -0.00153197 2.23532 1.42521e-05 2.70884V40.2649C-0.00153197 40.7384 0.122761 41.2039 0.360172 41.6136C0.597584 42.0233 0.939589 42.3625 1.35119 42.5966C1.76917 42.8422 2.24489 42.9723 2.72967 42.9737C3.21445 42.9751 3.69089 42.8477 4.11026 42.6045L36.8827 23.8453C37.306 23.6139 37.6593 23.2728 37.9053 22.8578C38.1514 22.4429 38.2813 21.9693 38.2813 21.4869C38.2813 21.0044 38.1514 20.5309 37.9053 20.1159C37.6593 19.7009 37.306 19.3599 36.8827 19.1284ZM2.34377 39.0066V3.96712L19.8635 21.4869L2.34377 39.0066ZM21.5208 23.1442L25.8415 27.4649L5.63233 39.0327L21.5208 23.1442ZM5.63233 3.94109L25.8415 15.509L21.5208 19.8296L5.63233 3.94109ZM35.7455 21.796L35.7266 21.8066L27.9494 26.2582L23.1781 21.4869L27.9494 16.7156L35.7266 21.1672L35.7455 21.1778C35.8032 21.2063 35.8517 21.2503 35.8856 21.305C35.9195 21.3596 35.9375 21.4226 35.9375 21.4869C35.9375 21.5512 35.9195 21.6142 35.8856 21.6688C35.8517 21.7234 35.8032 21.7675 35.7455 21.796Z" fill="black"/>
</svg>
