<svg width="50" height="50" viewBox="0 0 50 50" fill="none" xmlns="http://www.w3.org/2000/svg">
<g clip-path="url(#clip0_969_296)">
<path d="M25 0C11.1929 0 0 11.1929 0 25C0 38.8071 11.1929 50 25 50C38.8071 50 50 38.8071 50 25C50 11.1929 38.8071 0 25 0ZM37.994 15.8141L33.5538 37.0117C33.5001 37.2681 33.3828 37.5069 33.2127 37.7061C33.0426 37.9053 32.8252 38.0586 32.5804 38.1519C32.3356 38.2452 32.0713 38.2754 31.8118 38.2399C31.5523 38.2044 31.3058 38.1042 31.0951 37.9485L24.6365 33.177L20.7236 36.8684C20.6724 36.9167 20.6121 36.9543 20.5462 36.9791C20.4802 37.0038 20.41 37.0152 20.3397 37.0125C20.2693 37.0098 20.2002 36.9932 20.1363 36.9635C20.0725 36.9338 20.0152 36.8917 19.9678 36.8396L19.8837 36.7473L20.5636 30.1677L32.8179 18.9713C32.8785 18.916 32.9162 18.84 32.9235 18.7583C32.9308 18.6766 32.9073 18.5952 32.8575 18.53C32.8077 18.4648 32.7353 18.4206 32.6545 18.4062C32.5738 18.3918 32.4906 18.4081 32.4213 18.4521L16.7495 28.371L10 26.1042C9.82053 26.0439 9.66412 25.9296 9.55221 25.7769C9.44031 25.6241 9.3784 25.4405 9.37498 25.2513C9.37155 25.062 9.42678 24.8762 9.53309 24.7196C9.6394 24.5629 9.79158 24.443 9.96875 24.3763L36.377 14.4281C36.5807 14.3515 36.8012 14.3309 37.0156 14.3687C37.2299 14.4064 37.4302 14.5011 37.5955 14.6427C37.7607 14.7844 37.8849 14.9678 37.955 15.1739C38.0252 15.3799 38.0386 15.601 37.994 15.8141Z" fill="#FF9400" fill-opacity="0.6"/>
</g>
<defs>
<clipPath id="clip0_969_296">
<rect width="50" height="50" fill="white"/>
</clipPath>
</defs>
</svg>
