<svg width="50" height="50" viewBox="0 0 50 50" fill="none" xmlns="http://www.w3.org/2000/svg">
<path d="M25 48.4375C24.3474 48.4318 23.7031 48.2899 23.1085 48.0208C22.5138 47.7518 21.982 47.3615 21.5469 46.875C15.8437 40.625 6.24999 28.7344 6.24999 20.875C6.17901 15.8286 8.11373 10.9604 11.6293 7.3394C15.1448 3.71839 19.9537 1.64066 25 1.5625C30.0462 1.64066 34.8552 3.71839 38.3707 7.3394C41.8863 10.9604 43.821 15.8286 43.75 20.875C43.75 28.6875 34.1562 40.5469 28.4531 46.8906C28.0166 47.3743 27.4841 47.7616 26.8896 48.028C26.295 48.2943 25.6515 48.4338 25 48.4375ZM25 4.6875C20.7839 4.76965 16.7721 6.51939 13.8435 9.55346C10.9149 12.5875 9.30805 16.6586 9.37499 20.875C9.37499 25.7812 14.7969 34.7188 23.875 44.7969C24.0208 44.9481 24.1955 45.0684 24.3888 45.1505C24.5821 45.2327 24.79 45.275 25 45.275C25.21 45.275 25.4179 45.2327 25.6112 45.1505C25.8045 45.0684 25.9792 44.9481 26.125 44.7969C35.2031 34.7188 40.625 25.7812 40.625 20.875C40.6919 16.6586 39.0851 12.5875 36.1565 9.55346C33.2279 6.51939 29.2161 4.76965 25 4.6875Z" fill="#FF9400" fill-opacity="0.6"/>
<path d="M25 29.6875C23.1458 29.6875 21.3332 29.1377 19.7915 28.1075C18.2498 27.0774 17.0482 25.6132 16.3386 23.9002C15.629 22.1871 15.4434 20.3021 15.8051 18.4835C16.1669 16.665 17.0597 14.9945 18.3709 13.6834C19.682 12.3723 21.3524 11.4794 23.171 11.1176C24.9896 10.7559 26.8746 10.9416 28.5876 11.6511C30.3007 12.3607 31.7649 13.5623 32.795 15.104C33.8252 16.6457 34.375 18.4583 34.375 20.3125C34.375 22.7989 33.3873 25.1835 31.6291 26.9416C29.871 28.6998 27.4864 29.6875 25 29.6875ZM25 14.0625C23.7639 14.0625 22.5555 14.4291 21.5277 15.1158C20.4999 15.8026 19.6988 16.7787 19.2257 17.9207C18.7527 19.0628 18.6289 20.3194 18.8701 21.5318C19.1112 22.7442 19.7065 23.8578 20.5806 24.7319C21.4546 25.606 22.5683 26.2013 23.7807 26.4424C24.9931 26.6836 26.2497 26.5598 27.3918 26.0868C28.5338 25.6137 29.5099 24.8126 30.1967 23.7848C30.8834 22.757 31.25 21.5486 31.25 20.3125C31.25 18.6549 30.5915 17.0652 29.4194 15.8931C28.2473 14.721 26.6576 14.0625 25 14.0625Z" fill="#FF9400" fill-opacity="0.6"/>
</svg>
